<svg version="1.1" id="Layer_1" xmlns="http://www.w3.org/2000/svg" xmlns:xlink="http://www.w3.org/1999/xlink" x="0px" y="0px"
	 width="100%" viewBox="0 0 1200 1200" enable-background="new 0 0 1200 1200" xml:space="preserve">
<path fill="none" opacity="1.000000" stroke="none" 
	d="
M1091.000000,1201.000000 
	C727.333313,1201.000000 364.166656,1201.000000 1.000000,1201.000000 
	C1.000000,801.000000 1.000000,401.000000 1.000000,1.000000 
	C401.000000,1.000000 801.000000,1.000000 1201.000000,1.000000 
	C1201.000000,401.000000 1201.000000,801.000000 1201.000000,1201.000000 
	C1164.500000,1201.000000 1128.000000,1201.000000 1091.000000,1201.000000 
M709.044617,619.424805 
	C709.167175,615.651733 708.766052,611.773010 709.502258,608.123779 
	C712.793152,591.813293 716.408264,575.568298 719.970581,559.000549 
	C712.819397,559.000549 706.159546,558.851257 699.518372,559.136719 
	C698.307068,559.188721 696.378296,560.844849 696.122253,562.046387 
	C692.929382,577.031067 690.286499,592.139526 686.787170,607.048279 
	C685.770203,611.380798 683.116455,615.757935 680.079834,619.078186 
	C676.356018,623.149841 669.495300,621.602539 669.078918,617.220581 
	C668.849731,614.807983 669.138916,612.276306 669.606995,609.878906 
	C671.925964,598.000488 675.837402,586.509460 676.214478,574.152100 
	C676.501038,564.761719 666.507446,556.201355 655.665039,558.805603 
	C651.088013,559.904968 646.704224,561.808960 642.198303,563.358948 
	C642.407898,562.314575 642.706177,560.828125 643.043457,559.147339 
	C635.289246,559.147339 627.824219,559.147339 620.134033,559.147339 
	C616.742859,574.799438 613.385254,590.361389 609.991150,605.915405 
	C609.164917,609.701843 604.387634,613.403503 600.499573,613.598145 
	C599.240906,594.090393 597.982544,574.586548 596.699951,554.706726 
	C589.359680,555.501465 582.364319,556.119141 575.429199,557.144409 
	C574.243652,557.319702 572.858337,559.057983 572.340698,560.378235 
	C567.960327,571.551270 563.912659,582.856628 559.416443,593.981262 
	C557.993835,597.501160 556.181885,601.375488 553.402344,603.741577 
	C544.121033,611.642395 544.493469,626.469910 554.635986,633.204285 
	C562.797424,638.623535 579.395325,638.538513 587.522278,632.932373 
	C593.831787,628.579956 600.051819,624.097900 607.291870,618.980591 
	C606.023804,625.390320 605.011230,630.508789 603.956787,635.838806 
	C611.772278,635.838806 619.226624,635.838806 626.942261,635.838806 
	C629.642517,622.812561 632.250488,609.870911 635.029297,596.966003 
	C636.610168,589.623840 637.341125,581.781738 643.355835,576.358826 
	C645.072571,574.811096 649.333191,573.244995 650.068420,573.996094 
	C652.048767,576.019409 654.132507,579.508911 653.728638,582.023438 
	C652.098755,592.170410 649.213318,602.111511 647.454346,612.243652 
	C646.344482,618.636780 645.689819,625.438782 650.490356,630.960754 
	C656.513428,637.888916 669.681702,639.426025 677.279236,634.118286 
	C680.442871,631.908142 683.295837,629.253357 686.500366,626.628540 
	C688.457581,632.637146 692.662903,636.427063 698.188599,636.726379 
	C703.508423,637.014465 708.972168,635.299561 714.316406,634.193176 
	C716.801331,633.678711 719.153198,632.521484 722.314026,631.386902 
	C719.187988,646.320312 716.324341,660.000000 713.431152,673.820862 
	C713.976990,673.873779 714.660889,674.106140 715.263855,673.972778 
	C721.862244,672.513123 728.490662,671.151428 734.999756,669.359558 
	C736.248108,669.015869 737.550842,667.052185 737.909241,665.607788 
	C739.459473,659.359497 740.641541,653.020630 742.010986,646.726318 
	C742.946472,642.426331 743.970215,638.145569 744.978699,633.750427 
	C748.068176,635.034546 750.351074,636.563416 752.799988,636.906189 
	C767.526062,638.967712 781.435242,631.645752 787.930603,618.261169 
	C794.580078,604.559021 797.066406,590.133606 795.068542,574.883240 
	C793.435852,562.420593 783.045410,556.022705 771.731995,558.732117 
	C767.922363,559.644409 764.199890,560.920105 760.097412,562.130066 
	C760.740723,558.871826 761.286560,556.107178 761.899841,553.000793 
	C755.003479,553.000793 748.188293,552.872253 741.387451,553.125916 
	C740.238708,553.168823 738.398743,554.692505 738.151794,555.812927 
	C735.617126,567.307739 733.575684,578.913879 730.921997,590.379089 
	C729.051270,598.461121 726.872925,606.528442 724.032959,614.310852 
	C721.931824,620.068542 715.189880,622.917480 709.044617,619.424805 
M929.784912,558.001526 
	C919.868286,560.544006 912.119568,566.322083 906.805786,574.858215 
	C901.877014,582.776001 898.083923,591.295532 896.939697,600.788147 
	C896.485352,604.557678 896.586426,609.534729 894.296082,611.703491 
	C889.620667,616.130676 883.842285,619.855103 877.882507,622.350464 
	C869.835571,625.719543 862.576843,622.270447 861.253540,615.347900 
	C860.620911,612.038391 861.144714,608.507874 861.144714,605.086487 
	C877.473877,605.141846 898.613159,591.189941 896.077148,570.338379 
	C895.430237,565.019226 892.844421,560.431152 887.713562,559.062927 
	C874.712708,555.596008 862.675354,558.501770 853.731018,568.152649 
	C843.635376,579.045654 838.234680,592.550049 837.961670,607.773987 
	C837.861328,613.369690 835.406128,617.800964 830.169556,620.278198 
	C826.337402,622.091003 821.335205,620.969910 821.063049,618.251465 
	C820.815979,615.783569 820.644409,613.179138 821.152954,610.786438 
	C823.629761,599.133545 826.421875,587.548035 828.953552,575.906250 
	C830.958496,566.686279 830.862793,566.665466 839.867371,565.605103 
	C840.269226,563.533203 840.676636,561.432678 841.168701,558.895630 
	C837.697388,558.895630 834.922668,558.895630 832.165344,558.895630 
	C833.881226,550.826538 835.530396,543.071167 837.291321,534.790283 
	C829.945557,535.739624 823.486816,536.445618 817.078796,537.468750 
	C814.671143,537.853027 812.858948,538.775085 812.761414,542.234985 
	C812.655640,545.985352 810.327576,549.666260 810.183167,553.424133 
	C810.011963,557.877319 808.216125,559.560120 804.146851,559.215149 
	C803.674194,561.526855 803.265320,563.526367 802.787292,565.864502 
	C804.746887,565.970825 806.186218,566.048889 807.655273,566.128601 
	C805.074524,578.272278 802.282043,590.167358 800.098755,602.173218 
	C798.877319,608.890015 798.361084,615.779175 798.105469,622.612305 
	C797.930115,627.297668 799.864380,631.203918 804.095703,634.097351 
	C810.661560,638.587158 817.583984,637.880859 824.047729,635.199646 
	C829.572205,632.908020 834.377808,628.883728 839.470337,625.645569 
	C845.787354,637.310242 857.013245,638.096741 867.660278,636.790588 
	C879.023743,635.396484 888.299011,629.036194 894.999207,621.689514 
	C899.003235,625.962952 901.960571,631.046326 906.377014,633.460632 
	C918.215515,639.932556 930.160095,637.420593 941.365784,631.005554 
	C945.320374,628.741638 948.808472,625.663025 953.023193,622.580811 
	C952.214172,627.453918 951.526794,631.594543 950.819885,635.852539 
	C958.963989,635.852539 966.259827,635.852539 973.443848,635.852539 
	C976.823425,620.117920 979.865845,604.472107 983.687805,589.019104 
	C984.909058,584.081543 987.851196,579.421997 990.743103,575.132141 
	C991.647156,573.791077 995.265747,573.239563 997.083984,573.888855 
	C998.503479,574.395630 999.860535,577.328308 999.839905,579.167358 
	C999.791077,583.525696 999.052979,587.899109 998.330750,592.222534 
	C996.622803,602.447327 992.636841,612.259521 993.884033,623.016174 
	C994.750366,630.487305 998.958618,635.182739 1006.003418,636.929199 
	C1012.205872,638.466736 1021.019531,634.377136 1023.994446,628.681885 
	C1025.156860,626.456421 1025.653442,623.883118 1026.650513,620.872925 
	C1020.918518,621.205261 1015.986694,621.842468 1015.306519,615.539612 
	C1015.057800,613.234802 1015.729675,610.780151 1016.244873,608.452087 
	C1018.435791,598.552368 1021.141602,588.744507 1022.819702,578.761963 
	C1023.791565,572.980225 1023.084778,567.010925 1018.096436,562.546997 
	C1011.724609,556.845154 1001.209778,556.448730 992.763977,561.693237 
	C991.738831,562.329773 990.510132,562.638672 988.798828,563.333740 
	C991.424500,550.943420 993.830811,539.587830 996.248535,528.178650 
	C990.312195,528.857849 985.101807,528.753906 980.402466,530.252502 
	C977.556396,531.160156 972.938293,528.548828 971.771973,534.897461 
	C967.988342,555.494141 963.362976,575.937378 958.960815,596.418030 
	C958.053345,600.639893 957.775269,605.575562 955.350159,608.774414 
	C950.004089,615.826294 942.882629,621.132568 933.851379,622.953735 
	C924.974304,624.743958 919.757019,620.459839 920.085022,611.300659 
	C920.305847,605.134399 920.355347,598.676941 922.237305,592.924194 
	C924.845764,584.950623 928.793823,577.345093 932.877808,569.975159 
	C933.860168,568.202393 937.635132,567.977051 940.125793,567.040039 
	C940.750549,568.909058 941.760864,570.750854 941.895142,572.654480 
	C942.039001,574.693604 941.119995,576.791321 941.123596,578.862671 
	C941.125854,580.165771 942.046509,582.614624 942.427063,582.589722 
	C945.737244,582.373291 950.416382,582.899109 952.053589,580.969055 
	C957.601929,574.428284 955.707397,561.721191 947.229797,559.307861 
	C942.002075,557.819641 936.195007,558.366699 929.784912,558.001526 
M200.864807,665.663696 
	C202.412018,663.775574 204.881927,662.074890 205.311569,659.959778 
	C206.168182,655.742615 208.777954,655.943542 211.829620,655.978760 
	C217.991135,656.049866 224.154053,656.007874 230.316376,655.998230 
	C240.669159,655.981995 246.552505,650.375793 248.106552,640.035156 
	C248.984818,634.191406 250.626251,629.687927 259.123230,629.904968 
	C272.937805,630.257812 286.767975,629.991211 300.591583,630.003723 
	C307.376099,630.009888 310.434357,632.900879 310.999939,639.778076 
	C311.765259,649.084351 319.152649,655.972900 328.422729,655.996582 
	C335.251221,656.014038 342.082520,655.899231 348.905975,656.085144 
	C350.269592,656.122314 352.271545,656.890442 352.842224,657.939819 
	C356.483215,664.635681 361.182526,668.658142 369.540466,668.174438 
	C375.984680,667.801514 379.418243,664.123413 382.036865,659.357117 
	C385.053253,653.866821 384.536926,648.228210 380.645447,643.116272 
	C373.469238,633.689270 357.291840,634.251953 352.831635,648.183289 
	C352.546234,649.074768 350.527100,649.886841 349.292969,649.919495 
	C342.802063,650.091003 336.300079,650.145935 329.809875,649.961914 
	C322.176971,649.745483 318.497986,646.440552 317.022827,638.956055 
	C314.666290,626.999634 310.033630,623.018677 298.388977,623.003723 
	C285.564697,622.987305 272.734253,622.756531 259.917999,623.077698 
	C249.808609,623.330933 242.933029,628.023560 241.985291,638.744568 
	C241.423904,645.094971 239.274963,648.098206 233.093246,648.885864 
	C225.941162,649.797241 218.653992,649.617065 211.432175,650.028076 
	C208.550308,650.192078 207.045395,649.518433 205.847168,646.369873 
	C202.141190,636.631836 192.632370,635.207031 184.873444,638.158020 
	C177.657074,640.902710 173.902481,651.990723 176.944702,659.029968 
	C180.526367,667.317322 190.648209,670.885864 200.864807,665.663696 
M367.548035,584.000000 
	C375.949860,583.838745 383.088379,577.484863 383.977325,569.203369 
	C384.670074,562.749878 379.072845,554.256592 370.487518,552.393066 
	C367.461426,551.736206 363.267944,552.341125 360.824280,554.080017 
	C357.136993,556.703857 354.517273,560.827942 350.839447,565.000000 
	C343.963776,565.000000 335.806824,564.991943 327.649902,565.002136 
	C318.690094,565.013306 311.929260,571.116516 311.001190,580.011230 
	C310.145905,588.208191 307.123871,590.974487 298.860413,590.992859 
	C286.371002,591.020508 273.878754,590.843567 261.393097,591.061707 
	C254.481079,591.182434 249.015747,589.053101 247.943314,579.273743 
	C247.006287,570.728943 240.275330,565.030212 231.707016,565.004456 
	C224.546448,564.982910 217.383118,565.099060 210.227615,564.907532 
	C208.957260,564.873474 207.029572,563.932068 206.576340,562.896973 
	C203.192780,555.169434 196.097015,550.441406 186.602539,552.950012 
	C178.252213,555.156433 172.230972,568.978821 177.353806,575.704285 
	C181.039597,580.543213 185.692490,584.754028 192.583420,583.960449 
	C199.247650,583.192993 203.703903,579.436646 206.396637,573.277588 
	C206.866714,572.202332 208.725098,571.146545 209.979218,571.101135 
	C216.132614,570.878357 222.301331,570.881042 228.459335,571.027283 
	C238.275681,571.260376 241.272675,574.168579 241.988586,583.579956 
	C242.477692,590.009644 251.293320,597.252014 256.627319,597.126648 
	C271.939301,596.767090 287.265198,597.003723 302.585602,596.998352 
	C309.426300,596.995972 316.794525,590.845337 317.093079,583.450867 
	C317.426117,575.201294 321.098450,571.305481 328.405365,571.062378 
	C336.535889,570.792053 344.682281,571.000488 352.785797,571.000488 
	C353.342163,577.105103 358.787445,583.375549 367.548035,584.000000 
M203.887878,538.388611 
	C204.959763,545.125366 211.470062,549.670227 218.786407,549.968567 
	C225.634369,550.247864 232.551712,544.105347 234.709625,536.114746 
	C244.343109,534.862305 247.945953,539.571228 249.952499,544.433411 
	C252.393814,550.349182 254.743774,556.322327 256.725739,562.403442 
	C259.703369,571.539490 264.877289,577.735657 274.944092,579.643616 
	C283.599548,581.283997 294.593567,578.220215 298.743713,570.458740 
	C302.631775,563.187439 305.009369,555.104248 307.998993,547.357971 
	C311.191132,539.087036 314.343689,534.785889 324.585052,536.257812 
	C327.271484,545.151978 334.183594,550.739807 341.572388,549.990601 
	C348.296448,549.308716 355.345215,542.677307 356.036072,536.757141 
	C357.103027,527.613464 351.910248,520.838684 344.048523,518.500977 
	C337.012207,516.408630 330.119659,520.169434 325.282898,528.967468 
	C314.472961,528.978088 306.369965,533.222229 302.494659,543.958069 
	C300.754028,548.780090 298.667084,553.481750 297.042938,558.340210 
	C293.202332,569.828918 289.781067,573.845032 276.594543,573.174561 
	C270.288818,572.854004 266.782074,569.460999 264.480530,564.773743 
	C261.743225,559.199158 259.933777,553.140198 258.022766,547.194519 
	C253.987442,534.639771 248.073410,529.272888 233.596420,528.833496 
	C230.571671,520.358521 222.094452,516.202515 213.540146,519.000610 
	C206.015900,521.461792 202.423203,528.047974 203.887878,538.388611 
M347.006775,672.015503 
	C335.921204,668.782837 328.346161,673.077942 324.370056,684.933716 
	C317.437439,685.579895 312.406738,683.058838 309.753540,676.318848 
	C307.233673,669.917725 304.090027,663.712280 302.136200,657.148315 
	C297.833160,642.692017 286.327179,639.069824 272.541809,641.755981 
	C265.857971,643.058350 261.735046,646.593506 259.237915,652.442932 
	C256.979248,657.733643 255.358200,663.309509 252.911880,668.503418 
	C250.608963,673.392822 248.176804,678.436829 244.740433,682.519714 
	C240.857620,687.133118 235.722961,685.690430 232.967194,680.592407 
	C231.508636,677.894226 229.346420,675.260193 226.864624,673.491455 
	C219.842728,668.487061 209.786331,670.853821 205.223572,678.489624 
	C200.387543,686.582825 203.726547,696.284546 211.731415,700.903564 
	C217.895172,704.460205 229.973267,701.000488 232.666367,694.324951 
	C233.816010,691.475464 235.026581,690.728638 237.544586,691.014038 
	C245.317429,691.895081 250.667755,687.840332 253.883209,681.610291 
	C257.820618,673.981384 260.812012,665.846069 263.941223,657.823975 
	C266.550842,651.133972 271.024139,647.236633 277.648926,647.038086 
	C284.753967,646.825012 291.407013,647.695435 294.327271,655.747925 
	C295.744141,659.654846 297.399567,663.476929 298.999878,667.315308 
	C301.212372,672.622070 302.735382,678.407043 305.891907,683.084045 
	C310.441223,689.824707 317.638489,692.169983 325.705933,690.893860 
	C326.696808,697.719177 332.659027,701.186646 336.555450,701.917908 
	C344.727661,703.451965 350.560547,700.947205 354.018066,694.965393 
	C358.724426,686.822998 356.654694,679.284180 347.006775,672.015503 
M264.500000,607.000000 
	C251.522202,607.000000 238.544418,607.000000 225.626846,607.000000 
	C222.242386,596.943054 215.462387,593.005859 205.223221,595.009094 
	C200.084457,596.014465 193.615631,605.069275 194.000702,610.717896 
	C194.540604,618.637695 200.848755,625.388062 208.281036,625.999268 
	C216.950531,626.712341 223.659119,621.747559 225.628311,613.089111 
	C261.551514,613.089111 297.494446,613.089111 333.408508,613.089111 
	C337.189301,624.751343 344.004211,626.826477 352.357086,625.858948 
	C357.740143,625.235352 365.151428,619.047241 365.023590,610.077515 
	C364.923645,603.066589 359.741943,596.083008 353.613678,595.009216 
	C343.933167,593.312927 336.560486,597.629150 333.350952,607.000000 
	C310.770782,607.000000 288.135406,607.000000 264.500000,607.000000 
M462.000000,712.499878 
	C462.000000,719.277649 462.000000,726.055420 462.000000,732.734619 
	C463.947632,732.734619 465.349457,732.734619 466.810974,732.734619 
	C466.810974,644.773193 466.810974,557.076477 466.810974,469.365356 
	C465.109863,469.365356 463.607880,469.365356 462.000000,469.365356 
	C462.000000,550.319275 462.000000,630.909607 462.000000,712.499878 
M701.325500,545.855042 
	C704.042847,547.586670 706.573547,549.793762 709.517212,550.948547 
	C715.237793,553.192749 720.854248,550.454224 723.789185,544.584900 
	C726.366028,539.431519 724.812317,532.204346 720.472656,529.158020 
	C716.456726,526.338989 708.211121,526.092468 704.834778,528.690613 
	C700.323669,532.162048 698.708496,539.084045 701.325500,545.855042 
z"/>
<path fill="rgb(3, 128, 3)" opacity="1.000000" stroke="none" 
	d="
M709.327332,619.743652 
	C715.189880,622.917480 721.931824,620.068542 724.032959,614.310852 
	C726.872925,606.528442 729.051270,598.461121 730.921997,590.379089 
	C733.575684,578.913879 735.617126,567.307739 738.151794,555.812927 
	C738.398743,554.692505 740.238708,553.168823 741.387451,553.125916 
	C748.188293,552.872253 755.003479,553.000793 761.899841,553.000793 
	C761.286560,556.107178 760.740723,558.871826 760.097412,562.130066 
	C764.199890,560.920105 767.922363,559.644409 771.731995,558.732117 
	C783.045410,556.022705 793.435852,562.420593 795.068542,574.883240 
	C797.066406,590.133606 794.580078,604.559021 787.930603,618.261169 
	C781.435242,631.645752 767.526062,638.967712 752.799988,636.906189 
	C750.351074,636.563416 748.068176,635.034546 744.978699,633.750427 
	C743.970215,638.145569 742.946472,642.426331 742.010986,646.726318 
	C740.641541,653.020630 739.459473,659.359497 737.909241,665.607788 
	C737.550842,667.052185 736.248108,669.015869 734.999756,669.359558 
	C728.490662,671.151428 721.862244,672.513123 715.263855,673.972778 
	C714.660889,674.106140 713.976990,673.873779 713.431152,673.820862 
	C716.324341,660.000000 719.187988,646.320312 722.314026,631.386902 
	C719.153198,632.521484 716.801331,633.678711 714.316406,634.193176 
	C708.972168,635.299561 703.508423,637.014465 698.188599,636.726379 
	C692.662903,636.427063 688.457581,632.637146 686.500366,626.628540 
	C683.295837,629.253357 680.442871,631.908142 677.279236,634.118286 
	C669.681702,639.426025 656.513428,637.888916 650.490356,630.960754 
	C645.689819,625.438782 646.344482,618.636780 647.454346,612.243652 
	C649.213318,602.111511 652.098755,592.170410 653.728638,582.023438 
	C654.132507,579.508911 652.048767,576.019409 650.068420,573.996094 
	C649.333191,573.244995 645.072571,574.811096 643.355835,576.358826 
	C637.341125,581.781738 636.610168,589.623840 635.029297,596.966003 
	C632.250488,609.870911 629.642517,622.812561 626.942261,635.838806 
	C619.226624,635.838806 611.772278,635.838806 603.956787,635.838806 
	C605.011230,630.508789 606.023804,625.390320 607.291870,618.980591 
	C600.051819,624.097900 593.831787,628.579956 587.522278,632.932373 
	C579.395325,638.538513 562.797424,638.623535 554.635986,633.204285 
	C544.493469,626.469910 544.121033,611.642395 553.402344,603.741577 
	C556.181885,601.375488 557.993835,597.501160 559.416443,593.981262 
	C563.912659,582.856628 567.960327,571.551270 572.340698,560.378235 
	C572.858337,559.057983 574.243652,557.319702 575.429199,557.144409 
	C582.364319,556.119141 589.359680,555.501465 596.699951,554.706726 
	C597.982544,574.586548 599.240906,594.090393 600.499573,613.598145 
	C604.387634,613.403503 609.164917,609.701843 609.991150,605.915405 
	C613.385254,590.361389 616.742859,574.799438 620.134033,559.147339 
	C627.824219,559.147339 635.289246,559.147339 643.043457,559.147339 
	C642.706177,560.828125 642.407898,562.314575 642.198303,563.358948 
	C646.704224,561.808960 651.088013,559.904968 655.665039,558.805603 
	C666.507446,556.201355 676.501038,564.761719 676.214478,574.152100 
	C675.837402,586.509460 671.925964,598.000488 669.606995,609.878906 
	C669.138916,612.276306 668.849731,614.807983 669.078918,617.220581 
	C669.495300,621.602539 676.356018,623.149841 680.079834,619.078186 
	C683.116455,615.757935 685.770203,611.380798 686.787170,607.048279 
	C690.286499,592.139526 692.929382,577.031067 696.122253,562.046387 
	C696.378296,560.844849 698.307068,559.188721 699.518372,559.136719 
	C706.159546,558.851257 712.819397,559.000549 719.970581,559.000549 
	C716.408264,575.568298 712.793152,591.813293 709.502258,608.123779 
	C708.766052,611.773010 709.167175,615.651733 709.327332,619.743652 
M754.036865,588.748352 
	C752.351501,597.795044 750.705750,606.849365 748.967590,615.885925 
	C747.705872,622.445312 749.779907,623.880249 756.519958,622.177979 
	C761.939270,620.809265 764.513123,616.766235 766.693054,612.637756 
	C772.454163,601.726807 775.479370,589.995789 773.052002,577.673523 
	C771.039978,567.459412 764.941406,569.366943 759.656311,573.758118 
	C755.051270,577.584412 756.055908,583.206604 754.036865,588.748352 
M575.000000,586.461304 
	C575.000000,584.313843 575.000000,582.166443 575.000000,580.018982 
	C570.712280,587.061157 567.475769,594.070312 564.461914,601.173950 
	C564.077881,602.078979 564.613342,603.602051 565.138184,604.625977 
	C567.609680,609.447754 565.375732,615.434448 560.365356,616.828064 
	C559.005737,617.206299 557.519226,617.128296 554.957275,617.363953 
	C557.180603,619.951355 558.544434,623.112610 560.564697,623.610535 
	C568.311707,625.519958 577.277222,622.200562 576.922119,611.792847 
	C576.644226,603.646667 575.666748,595.524475 575.000000,586.461304 
z"/>
<path fill="rgb(3, 128, 3)" opacity="1.000000" stroke="none" 
	d="
M930.216431,558.000732 
	C936.195007,558.366699 942.002075,557.819641 947.229797,559.307861 
	C955.707397,561.721191 957.601929,574.428284 952.053589,580.969055 
	C950.416382,582.899109 945.737244,582.373291 942.427063,582.589722 
	C942.046509,582.614624 941.125854,580.165771 941.123596,578.862671 
	C941.119995,576.791321 942.039001,574.693604 941.895142,572.654480 
	C941.760864,570.750854 940.750549,568.909058 940.125793,567.040039 
	C937.635132,567.977051 933.860168,568.202393 932.877808,569.975159 
	C928.793823,577.345093 924.845764,584.950623 922.237305,592.924194 
	C920.355347,598.676941 920.305847,605.134399 920.085022,611.300659 
	C919.757019,620.459839 924.974304,624.743958 933.851379,622.953735 
	C942.882629,621.132568 950.004089,615.826294 955.350159,608.774414 
	C957.775269,605.575562 958.053345,600.639893 958.960815,596.418030 
	C963.362976,575.937378 967.988342,555.494141 971.771973,534.897461 
	C972.938293,528.548828 977.556396,531.160156 980.402466,530.252502 
	C985.101807,528.753906 990.312195,528.857849 996.248535,528.178650 
	C993.830811,539.587830 991.424500,550.943420 988.798828,563.333740 
	C990.510132,562.638672 991.738831,562.329773 992.763977,561.693237 
	C1001.209778,556.448730 1011.724609,556.845154 1018.096436,562.546997 
	C1023.084778,567.010925 1023.791565,572.980225 1022.819702,578.761963 
	C1021.141602,588.744507 1018.435791,598.552368 1016.244873,608.452087 
	C1015.729675,610.780151 1015.057800,613.234802 1015.306519,615.539612 
	C1015.986694,621.842468 1020.918518,621.205261 1026.650513,620.872925 
	C1025.653442,623.883118 1025.156860,626.456421 1023.994446,628.681885 
	C1021.019531,634.377136 1012.205872,638.466736 1006.003418,636.929199 
	C998.958618,635.182739 994.750366,630.487305 993.884033,623.016174 
	C992.636841,612.259521 996.622803,602.447327 998.330750,592.222534 
	C999.052979,587.899109 999.791077,583.525696 999.839905,579.167358 
	C999.860535,577.328308 998.503479,574.395630 997.083984,573.888855 
	C995.265747,573.239563 991.647156,573.791077 990.743103,575.132141 
	C987.851196,579.421997 984.909058,584.081543 983.687805,589.019104 
	C979.865845,604.472107 976.823425,620.117920 973.443848,635.852539 
	C966.259827,635.852539 958.963989,635.852539 950.819885,635.852539 
	C951.526794,631.594543 952.214172,627.453918 953.023193,622.580811 
	C948.808472,625.663025 945.320374,628.741638 941.365784,631.005554 
	C930.160095,637.420593 918.215515,639.932556 906.377014,633.460632 
	C901.960571,631.046326 899.003235,625.962952 894.999207,621.689514 
	C888.299011,629.036194 879.023743,635.396484 867.660278,636.790588 
	C857.013245,638.096741 845.787354,637.310242 839.470337,625.645569 
	C834.377808,628.883728 829.572205,632.908020 824.047729,635.199646 
	C817.583984,637.880859 810.661560,638.587158 804.095703,634.097351 
	C799.864380,631.203918 797.930115,627.297668 798.105469,622.612305 
	C798.361084,615.779175 798.877319,608.890015 800.098755,602.173218 
	C802.282043,590.167358 805.074524,578.272278 807.655273,566.128601 
	C806.186218,566.048889 804.746887,565.970825 802.787292,565.864502 
	C803.265320,563.526367 803.674194,561.526855 804.146851,559.215149 
	C808.216125,559.560120 810.011963,557.877319 810.183167,553.424133 
	C810.327576,549.666260 812.655640,545.985352 812.761414,542.234985 
	C812.858948,538.775085 814.671143,537.853027 817.078796,537.468750 
	C823.486816,536.445618 829.945557,535.739624 837.291321,534.790283 
	C835.530396,543.071167 833.881226,550.826538 832.165344,558.895630 
	C834.922668,558.895630 837.697388,558.895630 841.168701,558.895630 
	C840.676636,561.432678 840.269226,563.533203 839.867371,565.605103 
	C830.862793,566.665466 830.958496,566.686279 828.953552,575.906250 
	C826.421875,587.548035 823.629761,599.133545 821.152954,610.786438 
	C820.644409,613.179138 820.815979,615.783569 821.063049,618.251465 
	C821.335205,620.969910 826.337402,622.091003 830.169556,620.278198 
	C835.406128,617.800964 837.861328,613.369690 837.961670,607.773987 
	C838.234680,592.550049 843.635376,579.045654 853.731018,568.152649 
	C862.675354,558.501770 874.712708,555.596008 887.713562,559.062927 
	C892.844421,560.431152 895.430237,565.019226 896.077148,570.338379 
	C898.613159,591.189941 877.473877,605.141846 861.144714,605.086487 
	C861.144714,608.507874 860.620911,612.038391 861.253540,615.347900 
	C862.576843,622.270447 869.835571,625.719543 877.882507,622.350464 
	C883.842285,619.855103 889.620667,616.130676 894.296082,611.703491 
	C896.586426,609.534729 896.485352,604.557678 896.939697,600.788147 
	C898.083923,591.295532 901.877014,582.776001 906.805786,574.858215 
	C912.119568,566.322083 919.868286,560.544006 930.216431,558.000732 
M870.472290,576.021301 
	C867.044189,582.614075 863.899719,589.299500 863.148132,596.974976 
	C876.309875,593.869080 881.945190,584.801636 883.855957,572.823547 
	C884.116394,571.190857 883.119690,568.757019 881.860962,567.686035 
	C880.966797,566.925110 878.104980,567.213745 877.083923,568.119263 
	C874.731201,570.205750 872.965027,572.953674 870.472290,576.021301 
z"/>
<path fill="#FFFFFF" opacity="1.000000" stroke="none" 
	d="
M200.508698,665.825134 
	C190.648209,670.885864 180.526367,667.317322 176.944702,659.029968 
	C173.902481,651.990723 177.657074,640.902710 184.873444,638.158020 
	C192.632370,635.207031 202.141190,636.631836 205.847168,646.369873 
	C207.045395,649.518433 208.550308,650.192078 211.432175,650.028076 
	C218.653992,649.617065 225.941162,649.797241 233.093246,648.885864 
	C239.274963,648.098206 241.423904,645.094971 241.985291,638.744568 
	C242.933029,628.023560 249.808609,623.330933 259.917999,623.077698 
	C272.734253,622.756531 285.564697,622.987305 298.388977,623.003723 
	C310.033630,623.018677 314.666290,626.999634 317.022827,638.956055 
	C318.497986,646.440552 322.176971,649.745483 329.809875,649.961914 
	C336.300079,650.145935 342.802063,650.091003 349.292969,649.919495 
	C350.527100,649.886841 352.546234,649.074768 352.831635,648.183289 
	C357.291840,634.251953 373.469238,633.689270 380.645447,643.116272 
	C384.536926,648.228210 385.053253,653.866821 382.036865,659.357117 
	C379.418243,664.123413 375.984680,667.801514 369.540466,668.174438 
	C361.182526,668.658142 356.483215,664.635681 352.842224,657.939819 
	C352.271545,656.890442 350.269592,656.122314 348.905975,656.085144 
	C342.082520,655.899231 335.251221,656.014038 328.422729,655.996582 
	C319.152649,655.972900 311.765259,649.084351 310.999939,639.778076 
	C310.434357,632.900879 307.376099,630.009888 300.591583,630.003723 
	C286.767975,629.991211 272.937805,630.257812 259.123230,629.904968 
	C250.626251,629.687927 248.984818,634.191406 248.106552,640.035156 
	C246.552505,650.375793 240.669159,655.981995 230.316376,655.998230 
	C224.154053,656.007874 217.991135,656.049866 211.829620,655.978760 
	C208.777954,655.943542 206.168182,655.742615 205.311569,659.959778 
	C204.881927,662.074890 202.412018,663.775574 200.508698,665.825134 
z"/>
<path fill="#FFFFFF" opacity="1.000000" stroke="none" 
	d="
M367.119934,584.000000 
	C358.787445,583.375549 353.342163,577.105103 352.785797,571.000488 
	C344.682281,571.000488 336.535889,570.792053 328.405365,571.062378 
	C321.098450,571.305481 317.426117,575.201294 317.093079,583.450867 
	C316.794525,590.845337 309.426300,596.995972 302.585602,596.998352 
	C287.265198,597.003723 271.939301,596.767090 256.627319,597.126648 
	C251.293320,597.252014 242.477692,590.009644 241.988586,583.579956 
	C241.272675,574.168579 238.275681,571.260376 228.459335,571.027283 
	C222.301331,570.881042 216.132614,570.878357 209.979218,571.101135 
	C208.725098,571.146545 206.866714,572.202332 206.396637,573.277588 
	C203.703903,579.436646 199.247650,583.192993 192.583420,583.960449 
	C185.692490,584.754028 181.039597,580.543213 177.353806,575.704285 
	C172.230972,568.978821 178.252213,555.156433 186.602539,552.950012 
	C196.097015,550.441406 203.192780,555.169434 206.576340,562.896973 
	C207.029572,563.932068 208.957260,564.873474 210.227615,564.907532 
	C217.383118,565.099060 224.546448,564.982910 231.707016,565.004456 
	C240.275330,565.030212 247.006287,570.728943 247.943314,579.273743 
	C249.015747,589.053101 254.481079,591.182434 261.393097,591.061707 
	C273.878754,590.843567 286.371002,591.020508 298.860413,590.992859 
	C307.123871,590.974487 310.145905,588.208191 311.001190,580.011230 
	C311.929260,571.116516 318.690094,565.013306 327.649902,565.002136 
	C335.806824,564.991943 343.963776,565.000000 350.839447,565.000000 
	C354.517273,560.827942 357.136993,556.703857 360.824280,554.080017 
	C363.267944,552.341125 367.461426,551.736206 370.487518,552.393066 
	C379.072845,554.256592 384.670074,562.749878 383.977325,569.203369 
	C383.088379,577.484863 375.949860,583.838745 367.119934,584.000000 
z"/>
<path fill="#FFFFFF" opacity="1.000000" stroke="none" 
	d="
M203.584106,538.098877 
	C202.423203,528.047974 206.015900,521.461792 213.540146,519.000610 
	C222.094452,516.202515 230.571671,520.358521 233.596420,528.833496 
	C248.073410,529.272888 253.987442,534.639771 258.022766,547.194519 
	C259.933777,553.140198 261.743225,559.199158 264.480530,564.773743 
	C266.782074,569.460999 270.288818,572.854004 276.594543,573.174561 
	C289.781067,573.845032 293.202332,569.828918 297.042938,558.340210 
	C298.667084,553.481750 300.754028,548.780090 302.494659,543.958069 
	C306.369965,533.222229 314.472961,528.978088 325.282898,528.967468 
	C330.119659,520.169434 337.012207,516.408630 344.048523,518.500977 
	C351.910248,520.838684 357.103027,527.613464 356.036072,536.757141 
	C355.345215,542.677307 348.296448,549.308716 341.572388,549.990601 
	C334.183594,550.739807 327.271484,545.151978 324.585052,536.257812 
	C314.343689,534.785889 311.191132,539.087036 307.998993,547.357971 
	C305.009369,555.104248 302.631775,563.187439 298.743713,570.458740 
	C294.593567,578.220215 283.599548,581.283997 274.944092,579.643616 
	C264.877289,577.735657 259.703369,571.539490 256.725739,562.403442 
	C254.743774,556.322327 252.393814,550.349182 249.952499,544.433411 
	C247.945953,539.571228 244.343109,534.862305 234.709625,536.114746 
	C232.551712,544.105347 225.634369,550.247864 218.786407,549.968567 
	C211.470062,549.670227 204.959763,545.125366 203.584106,538.098877 
z"/>
<path fill="#FFFFFF" opacity="1.000000" stroke="none" 
	d="
M347.394836,672.134949 
	C356.654694,679.284180 358.724426,686.822998 354.018066,694.965393 
	C350.560547,700.947205 344.727661,703.451965 336.555450,701.917908 
	C332.659027,701.186646 326.696808,697.719177 325.705933,690.893860 
	C317.638489,692.169983 310.441223,689.824707 305.891907,683.084045 
	C302.735382,678.407043 301.212372,672.622070 298.999878,667.315308 
	C297.399567,663.476929 295.744141,659.654846 294.327271,655.747925 
	C291.407013,647.695435 284.753967,646.825012 277.648926,647.038086 
	C271.024139,647.236633 266.550842,651.133972 263.941223,657.823975 
	C260.812012,665.846069 257.820618,673.981384 253.883209,681.610291 
	C250.667755,687.840332 245.317429,691.895081 237.544586,691.014038 
	C235.026581,690.728638 233.816010,691.475464 232.666367,694.324951 
	C229.973267,701.000488 217.895172,704.460205 211.731415,700.903564 
	C203.726547,696.284546 200.387543,686.582825 205.223572,678.489624 
	C209.786331,670.853821 219.842728,668.487061 226.864624,673.491455 
	C229.346420,675.260193 231.508636,677.894226 232.967194,680.592407 
	C235.722961,685.690430 240.857620,687.133118 244.740433,682.519714 
	C248.176804,678.436829 250.608963,673.392822 252.911880,668.503418 
	C255.358200,663.309509 256.979248,657.733643 259.237915,652.442932 
	C261.735046,646.593506 265.857971,643.058350 272.541809,641.755981 
	C286.327179,639.069824 297.833160,642.692017 302.136200,657.148315 
	C304.090027,663.712280 307.233673,669.917725 309.753540,676.318848 
	C312.406738,683.058838 317.437439,685.579895 324.370056,684.933716 
	C328.346161,673.077942 335.921204,668.782837 347.394836,672.134949 
z"/>
<path fill="#FFFFFF" opacity="1.000000" stroke="none" 
	d="
M265.000000,607.000000 
	C288.135406,607.000000 310.770782,607.000000 333.350952,607.000000 
	C336.560486,597.629150 343.933167,593.312927 353.613678,595.009216 
	C359.741943,596.083008 364.923645,603.066589 365.023590,610.077515 
	C365.151428,619.047241 357.740143,625.235352 352.357086,625.858948 
	C344.004211,626.826477 337.189301,624.751343 333.408508,613.089111 
	C297.494446,613.089111 261.551514,613.089111 225.628311,613.089111 
	C223.659119,621.747559 216.950531,626.712341 208.281036,625.999268 
	C200.848755,625.388062 194.540604,618.637695 194.000702,610.717896 
	C193.615631,605.069275 200.084457,596.014465 205.223221,595.009094 
	C215.462387,593.005859 222.242386,596.943054 225.626846,607.000000 
	C238.544418,607.000000 251.522202,607.000000 265.000000,607.000000 
z"/>
<path fill="#FFFFFF" opacity="1.000000" stroke="none" 
	d="
M462.000000,711.999878 
	C462.000000,630.909607 462.000000,550.319275 462.000000,469.365356 
	C463.607880,469.365356 465.109863,469.365356 466.810974,469.365356 
	C466.810974,557.076477 466.810974,644.773193 466.810974,732.734619 
	C465.349457,732.734619 463.947632,732.734619 462.000000,732.734619 
	C462.000000,726.055420 462.000000,719.277649 462.000000,711.999878 
z"/>
<path fill="rgb(3, 128, 3)" opacity="1.000000" stroke="none" 
	d="
M701.166443,545.474121 
	C698.708496,539.084045 700.323669,532.162048 704.834778,528.690613 
	C708.211121,526.092468 716.456726,526.338989 720.472656,529.158020 
	C724.812317,532.204346 726.366028,539.431519 723.789185,544.584900 
	C720.854248,550.454224 715.237793,553.192749 709.517212,550.948547 
	C706.573547,549.793762 704.042847,547.586670 701.166443,545.474121 
z"/>
<path fill="#000000" opacity="1.000000" stroke="none" 
	d="
M754.266235,588.375977 
	C756.055908,583.206604 755.051270,577.584412 759.656311,573.758118 
	C764.941406,569.366943 771.039978,567.459412 773.052002,577.673523 
	C775.479370,589.995789 772.454163,601.726807 766.693054,612.637756 
	C764.513123,616.766235 761.939270,620.809265 756.519958,622.177979 
	C749.779907,623.880249 747.705872,622.445312 748.967590,615.885925 
	C750.705750,606.849365 752.351501,597.795044 754.266235,588.375977 
z"/>
<path fill="#000000" opacity="1.000000" stroke="none" 
	d="
M575.000000,586.926453 
	C575.666748,595.524475 576.644226,603.646667 576.922119,611.792847 
	C577.277222,622.200562 568.311707,625.519958 560.564697,623.610535 
	C558.544434,623.112610 557.180603,619.951355 554.957275,617.363953 
	C557.519226,617.128296 559.005737,617.206299 560.365356,616.828064 
	C565.375732,615.434448 567.609680,609.447754 565.138184,604.625977 
	C564.613342,603.602051 564.077881,602.078979 564.461914,601.173950 
	C567.475769,594.070312 570.712280,587.061157 575.000000,580.018982 
	C575.000000,582.166443 575.000000,584.313843 575.000000,586.926453 
z"/>
<path fill="#000000" opacity="1.000000" stroke="none" 
	d="
M870.716553,575.727295 
	C872.965027,572.953674 874.731201,570.205750 877.083923,568.119263 
	C878.104980,567.213745 880.966797,566.925110 881.860962,567.686035 
	C883.119690,568.757019 884.116394,571.190857 883.855957,572.823547 
	C881.945190,584.801636 876.309875,593.869080 863.148132,596.974976 
	C863.899719,589.299500 867.044189,582.614075 870.716553,575.727295 
z"/>
</svg>